<svg xmlns="http://www.w3.org/2000/svg" viewBox="0 0 1024 1024" role="img" aria-label="FlSQLite Viewer icon draft 04">
  <defs>
    <linearGradient id="bg" x1="96" y1="928" x2="928" y2="96" gradientUnits="userSpaceOnUse">
      <stop offset="0" stop-color="#0B3D91"/>
      <stop offset="1" stop-color="#00ACC1"/>
    </linearGradient>
    <linearGradient id="card" x1="246" y1="190" x2="778" y2="832" gradientUnits="userSpaceOnUse">
      <stop offset="0" stop-color="#F7FBFF"/>
      <stop offset="1" stop-color="#D7E8FF"/>
    </linearGradient>
    <filter id="shadow" x="-20%" y="-20%" width="140%" height="140%">
      <feDropShadow dx="0" dy="24" stdDeviation="24" flood-color="#00294D" flood-opacity="0.30"/>
    </filter>
  </defs>
  <rect x="96" y="96" width="832" height="832" rx="214" fill="url(#bg)"/>
  <g filter="url(#shadow)">
    <path d="M268 206h366l122 122v490H268V206z" fill="url(#card)"/>
    <path d="M634 206v122h122" fill="#BBD6FF"/>
    <rect x="340" y="394" width="344" height="48" rx="24" fill="#90A4AE"/>
    <rect x="340" y="486" width="264" height="48" rx="24" fill="#B0BEC5"/>
    <rect x="340" y="578" width="344" height="48" rx="24" fill="#B0BEC5"/>
  </g>
  <g transform="translate(300 602)" filter="url(#shadow)">
    <ellipse cx="212" cy="48" rx="178" ry="62" fill="#1565C0"/>
    <path d="M34 48v176c0 34 80 62 178 62s178-28 178-62V48" fill="#1565C0"/>
    <ellipse cx="212" cy="224" rx="178" ry="62" fill="#0D47A1"/>
    <path d="M34 136c0 34 80 62 178 62s178-28 178-62" fill="none" stroke="#90CAF9" stroke-width="24" stroke-linecap="round"/>
  </g>
  <g transform="translate(620 600)">
    <circle cx="82" cy="82" r="74" fill="#FFFFFF"/>
    <path d="M82 34v96" stroke="#00ACC1" stroke-width="28" stroke-linecap="round"/>
    <path d="M42 88l40 42 40-42" fill="none" stroke="#00ACC1" stroke-width="28" stroke-linecap="round" stroke-linejoin="round"/>
  </g>
</svg>